#!OML:ASF E:\emotionWalksFemale\Project 1\Capture day 1\Session 1\Female1.ASF
:FULLY-SPECIFIED
:DEGREES
984
root 9.3807 15.3098 -38.3516 183.663 -190.128 -178.541
lowerback 3.97619 1.51946 -0.621314
upperback -4.63581 1.95703 -0.666544
thorax -7.06269 0.979994 -0.545185
lowerneck -4.79298 -6.98823 -9.41358
upperneck 10.6326 -9.37746 6.9745
head 4.74546 -4.62912 3.10461
rclavicle 2.42005e-014 2.0356e-015
rhumerus -44.5565 15.5494 -97.2441
rradius 33.6392
rwrist 13.7565
rhand -12.0424 -52.2958
rfingers 7.12502
rthumb 14.0161 638.197
lclavicle 2.42005e-014 2.0356e-015
lhumerus -46.1109 -4.70896 83.3686
lradius 38.2221
lwrist -16.4376
lhand -12.0827 -20.8244
lfingers 7.12502
lthumb 13.9773 8.68569
rfemur -4.20559 24.5242 28.8461
rtibia 26.4283
rfoot -32.7323 -38.7995
rtoes 20.0684
lfemur -12.372 -23.5845 -22.926
ltibia 32.4649
lfoot -27.8291 17.0976
ltoes -19.8331
985
root 9.38531 15.3092 -38.3405 183.724 -190.377 -178.508
lowerback 3.82659 1.43207 -0.652104
upperback -4.63071 1.83998 -0.655493
thorax -6.97205 0.924632 -0.50012
lowerneck -4.51974 -6.88077 -9.6264
upperneck 10.4892 -9.27079 7.32147
head 4.67262 -4.57327 3.26468
rclavicle 2.91849e-015 -8.86145e-015
rhumerus -44.5378 15.4137 -97.0681
rradius 33.3674
rwrist 14.2195
rhand -11.9729 -52.5901
rfingers 7.12502
rthumb 14.0831 637.907
lclavicle 2.91849e-015 -8.86145e-015
lhumerus -45.7117 -4.19151 83.1142
lradius 38.3189
lwrist -15.9419
lhand -11.1871 -20.7466
lfingers 7.12502
lthumb 14.8403 8.70196
rfemur -4.09455 25.1704 28.9755
rtibia 26.4136
rfoot -33.407 -39.4683
rtoes 20.4542
lfemur -12.4066 -23.6618 -22.9429
ltibia 32.4954
lfoot -28.075 16.8531
ltoes -19.7126
986
root 9.39638 15.3073 -38.3349 183.814 -190.32 -178.402
lowerback 3.95648 1.43663 -0.61477
upperback -4.77348 1.84266 -0.725152
thorax -7.19641 0.921612 -0.600957
lowerneck -4.30062 -6.85973 -9.6238
upperneck 10.6256 -9.27103 7.34046
head 4.67829 -4.57724 3.27646
rclavicle 6.72286e-015 -8.88319e-016
rhumerus -44.7655 15.3279 -97.0806
rradius 33.0313
rwrist 14.966
rhand -12.2198 -53.1506
rfingers 7.12502
rthumb 13.8452 637.33
lclavicle 6.72286e-015 -8.88319e-016
lhumerus -45.5308 -3.7399 82.827
lradius 38.3638
lwrist -15.5395
lhand -10.6056 -22.0382
lfingers 7.12502
lthumb 15.4004 7.36819
rfemur -4.12269 25.5132 28.8401
rtibia 26.4053
rfoot -33.5919 -39.7684
rtoes 20.3209
lfemur -12.47 -23.7055 -23.1086
ltibia 32.5152
lfoot -28.0611 17.0691
ltoes -19.8332
987
root 9.41182 15.3055 -38.3297 183.866 -190.258 -178.318
lowerback 4.08329 1.43733 -0.53471
upperback -4.83311 1.84523 -0.769841
thorax -7.32983 0.916812 -0.697849
lowerneck -4.36939 -6.90118 -9.46197
upperneck 10.7957 -9.31608 7.11
head 4.72758 -4.60316 3.17219
rclavicle -6.36026e-014 -1.47846e-014
rhumerus -44.874 15.3884 -97.032
rradius 32.8834
rwrist 15.1496
rhand -12.0159 -53.4348
rfingers 7.12502
rthumb 14.0416 637.06
lclavicle -6.36026e-014 -1.47846e-014
lhumerus -45.2479 -3.21617 82.584
lradius 38.4084
lwrist -15.2302
lhand -10.2752 -26.4201
lfingers 7.12502
lthumb 15.7186 2.96154
rfemur -4.15646 25.5211 28.6701
rtibia 26.4249
rfoot -33.5208 -39.7263
rtoes 20.1511
lfemur -12.4702 -23.7186 -23.2882
ltibia 32.5338
lfoot -27.9928 17.2703
ltoes -20.4036
988
root 9.42312 15.3075 -38.3216 183.943 -189.979 -178.338
lowerback 4.10934 1.52528 -0.48775
upperback -4.85717 1.96642 -0.770708
thorax -7.36843 0.973754 -0.738969
lowerneck -4.53604 -6.98207 -9.32834
upperneck 10.925 -9.40779 6.92963
head 4.78828 -4.64846 3.08112
rclavicle 4.36457e-014 1.55549e-014
rhumerus -44.9058 15.3665 -96.8788
rradius 32.8526
rwrist 15.3525
rhand -11.5967 -53.7909
rfingers 7.12502
rthumb 14.4456 636.732
lclavicle 4.36457e-014 1.55549e-014
lhumerus -44.9312 -2.78668 82.4444
lradius 38.5857
lwrist -14.8716
lhand -10.6637 -26.591
lfingers 7.12502
lthumb 15.3444 2.81969
rfemur -4.26292 25.4241 28.5523
rtibia 26.4469
rfoot -33.157 -39.4588
rtoes 19.5772
lfemur -12.4531 -23.6663 -23.3305
ltibia 32.5583
lfoot -28.3782 17.4599
ltoes -21.2984
989
root 9.43446 15.3087 -38.3118 183.987 -189.823 -178.418
lowerback 3.7925 1.61128 -0.532802
upperback -4.7054 2.08769 -0.677172
thorax -7.02643 1.04002 -0.614371
lowerneck -4.52485 -7.06468 -9.22363
upperneck 10.7591 -9.50591 6.80027
head 4.73263 -4.69926 3.01941
rclavicle -2.20573e-014 -5.14355e-015
rhumerus -44.7129 15.3946 -96.5542
rradius 32.7406
rwrist 15.5967
rhand -11.3905 -53.8604
rfingers 7.12502
rthumb 14.6443 636.677
lclavicle -2.20573e-014 -5.14355e-015
lhumerus -44.4293 -2.46684 82.5234
lradius 38.7719
lwrist -14.5121
lhand -9.98774 -22.2141
lfingers 7.12502
lthumb 15.9954 7.14558
rfemur -4.27845 25.5142 28.5777
rtibia 26.4224
rfoot -33.146 -39.4389
rtoes 19.261
lfemur -12.4671 -23.6131 -23.2925
ltibia 32.6216
lfoot -28.9114 17.683
ltoes -22.7785
990
root 9.44944 15.308 -38.302 184.038 -189.717 -178.466
lowerback 4.01911 1.62946 -0.28772
upperback -4.81719 2.12185 -0.775115
thorax -7.26443 1.03991 -0.867417
lowerneck -4.64525 -7.02706 -9.03006
upperneck 10.8893 -9.47087 6.81945
head 4.7811 -4.67083 2.99214
rclavicle 3.75276e-014 -3.28616e-015
rhumerus -44.8649 15.3492 -96.6412
rradius 32.5426
rwrist 16.0144
rhand -11.4332 -53.5683
rfingers 7.12502
rthumb 14.6031 636.966
lclavicle 3.75276e-014 -3.28616e-015
lhumerus -44.296 -2.38208 82.3885
lradius 39.0049
lwrist -13.7619
lhand -9.6633 -21.3238
lfingers 7.12502
lthumb 16.3079 8.01049
rfemur -4.25499 25.8626 28.5928
rtibia 26.3629
rfoot -33.5237 -39.6281
rtoes 19.2786
lfemur -12.5081 -23.5168 -23.31
ltibia 32.698
lfoot -29.4442 17.8069
ltoes -23.6273
991
root 9.46381 15.3071 -38.2914 184.094 -189.58 -178.517
lowerback 3.93351 1.67486 -0.28629
upperback -4.79021 2.18908 -0.687218
thorax -7.18854 1.07604 -0.779545
lowerneck -4.69646 -6.96933 -9.21203
upperneck 10.895 -9.39832 7.03498
head 4.80432 -4.62997 3.09095
rclavicle 1.8341e-015 -4.47266e-015
rhumerus -44.8641 15.3509 -96.3429
rradius 32.4144
rwrist 16.1939
rhand -11.4117 -53.6643
rfingers 7.12502
rthumb 14.6239 636.871
lclavicle 1.8341e-015 -4.47266e-015
lhumerus -44.014 -2.16316 82.5234
lradius 39.2183
lwrist -12.9083
lhand -9.27914 -21.5765
lfingers 7.12502
lthumb 16.6777 7.72708
rfemur -4.26924 26.0245 28.5686
rtibia 26.3365
rfoot -33.7556 -39.653
rtoes 18.9333
lfemur -12.5281 -23.3605 -23.3366
ltibia 32.744
lfoot -29.6814 17.9514
ltoes -24.827
992
root 9.47235 15.3077 -38.2784 184.283 -189.729 -178.502
lowerback 3.63882 1.60774 -0.359443
upperback -4.7805 2.09913 -0.635321
thorax -7.01245 1.03829 -0.665296
lowerneck -4.62578 -6.9306 -9.45427
upperneck 10.8554 -9.36075 7.30369
head 4.80125 -4.60866 3.21792
rclavicle -5.15132e-014 7.45443e-016
rhumerus -44.8799 15.3515 -96.145
rradius 32.3151
rwrist 16.4086
rhand -11.3381 -53.7843
rfingers 7.12502
rthumb 14.6948 636.757
lclavicle -5.15132e-014 7.45443e-016
lhumerus -43.8905 -2.1024 82.6701
lradius 39.4623
lwrist -12.1964
lhand -10.1134 -22.8676
lfingers 7.12502
lthumb 15.8744 6.50166
rfemur -4.37939 26.2022 28.5289
rtibia 26.3449
rfoot -34.1673 -39.8903
rtoes 18.9056
lfemur -12.7231 -23.244 -23.2973
ltibia 32.7702
lfoot -29.7003 17.6798
ltoes -25.1167
993
root 9.48602 15.3106 -38.2763 184.482 -189.783 -178.396
lowerback 3.56125 1.55523 -0.463432
upperback -4.78586 2.02507 -0.586896
thorax -6.97913 1.00885 -0.547155
lowerneck -4.60816 -6.93115 -9.5293
upperneck 10.7292 -9.34337 7.25241
head 4.75945 -4.60621 3.21698
rclavicle 3.80362e-014 -1.49089e-016
rhumerus -44.7657 15.437 -95.8601
rradius 32.4213
rwrist 15.8061
rhand -10.7439 -54.8841
rfingers 7.12502
rthumb 15.2672 635.699
lclavicle 3.80362e-014 -1.49089e-016
lhumerus -43.7873 -2.03077 82.9324
lradius 39.6323
lwrist -11.5837
lhand -12.9738 -26.7158
lfingers 7.12502
lthumb 13.1185 2.85153
rfemur -4.58519 26.2 28.2727
rtibia 26.355
rfoot -34.3318 -39.9095
rtoes 18.9713
lfemur -12.9679 -23.1717 -23.3757
ltibia 32.7885
lfoot -29.7762 17.3903
ltoes -24.4348
994
root 9.49652 15.3092 -38.274 184.537 -189.862 -178.312
lowerback 3.61637 1.51645 -0.641603
upperback -4.71286 1.96481 -0.512805
thorax -6.94235 0.99034 -0.364685
lowerneck -4.65335 -6.95822 -9.45928
upperneck 10.4666 -9.35164 7.10852
head 4.67737 -4.61396 3.16195
rclavicle -5.58896e-014 -7.35503e-015
rhumerus -44.6535 15.5721 -95.5916
rradius 32.1903
rwrist 16.2113
rhand -10.9383 -54.9405
rfingers 7.12502
rthumb 15.0799 635.629
lclavicle -5.58896e-014 -7.35503e-015
lhumerus -43.4729 -1.9818 83.2335
lradius 39.6251
lwrist -11.1932
lhand -13.3014 -27.3359
lfingers 7.12502
lthumb 12.8026 2.2515
rfemur -4.51456 26.7572 28.2463
rtibia 26.3498
rfoot -34.9669 -40.2375
rtoes 19.9974
lfemur -13.0495 -23.0344 -23.482
ltibia 32.8214
lfoot -29.7253 17.2567
ltoes -24.8587
